%TF.GenerationSoftware,KiCad,Pcbnew,(6.0.0-rc1-209-ga3b4210bdd-dirty)*%
%TF.CreationDate,2021-12-23T02:42:49+03:00*%
%TF.ProjectId,ibutton,69627574-746f-46e2-9e6b-696361645f70,rev?*%
%TF.SameCoordinates,Original*%
%TF.FileFunction,Copper,L1,Top*%
%TF.FilePolarity,Positive*%
%FSLAX46Y46*%
G04 Gerber Fmt 4.6, Leading zero omitted, Abs format (unit mm)*
G04 Created by KiCad (PCBNEW (6.0.0-rc1-209-ga3b4210bdd-dirty)) date 2021-12-23 02:42:49*
%MOMM*%
%LPD*%
G01*
G04 APERTURE LIST*
G04 Aperture macros list*
%AMRoundRect*
0 Rectangle with rounded corners*
0 $1 Rounding radius*
0 $2 $3 $4 $5 $6 $7 $8 $9 X,Y pos of 4 corners*
0 Add a 4 corners polygon primitive as box body*
4,1,4,$2,$3,$4,$5,$6,$7,$8,$9,$2,$3,0*
0 Add four circle primitives for the rounded corners*
1,1,$1+$1,$2,$3*
1,1,$1+$1,$4,$5*
1,1,$1+$1,$6,$7*
1,1,$1+$1,$8,$9*
0 Add four rect primitives between the rounded corners*
20,1,$1+$1,$2,$3,$4,$5,0*
20,1,$1+$1,$4,$5,$6,$7,0*
20,1,$1+$1,$6,$7,$8,$9,0*
20,1,$1+$1,$8,$9,$2,$3,0*%
G04 Aperture macros list end*
%TA.AperFunction,SMDPad,CuDef*%
%ADD10R,1.750000X2.700000*%
%TD*%
%TA.AperFunction,SMDPad,CuDef*%
%ADD11R,0.850000X0.300000*%
%TD*%
%TA.AperFunction,SMDPad,CuDef*%
%ADD12C,1.000000*%
%TD*%
%TA.AperFunction,SMDPad,CuDef*%
%ADD13R,1.270000X0.760000*%
%TD*%
%TA.AperFunction,SMDPad,CuDef*%
%ADD14RoundRect,0.135000X-0.135000X-0.185000X0.135000X-0.185000X0.135000X0.185000X-0.135000X0.185000X0*%
%TD*%
%TA.AperFunction,SMDPad,CuDef*%
%ADD15R,0.600000X0.450000*%
%TD*%
%TA.AperFunction,SMDPad,CuDef*%
%ADD16RoundRect,0.225000X0.225000X0.250000X-0.225000X0.250000X-0.225000X-0.250000X0.225000X-0.250000X0*%
%TD*%
%TA.AperFunction,ViaPad*%
%ADD17C,0.800000*%
%TD*%
%TA.AperFunction,Conductor*%
%ADD18C,0.300000*%
%TD*%
%TA.AperFunction,Conductor*%
%ADD19C,0.150000*%
%TD*%
%TA.AperFunction,Conductor*%
%ADD20C,0.400000*%
%TD*%
%TA.AperFunction,Conductor*%
%ADD21C,0.250000*%
%TD*%
G04 APERTURE END LIST*
D10*
%TO.P,U1,11,GND*%
%TO.N,GND*%
X100000000Y-104500000D03*
D11*
%TO.P,U1,10,VCC*%
%TO.N,VCC*%
X101450000Y-103500000D03*
%TO.P,U1,9,PB2*%
%TO.N,/PB2*%
X101450000Y-104000000D03*
%TO.P,U1,8,NC*%
%TO.N,unconnected-(U1-Pad8)*%
X101450000Y-104500000D03*
%TO.P,U1,7,PB1*%
%TO.N,unconnected-(U1-Pad7)*%
X101450000Y-105000000D03*
%TO.P,U1,6,PB0*%
%TO.N,/Dq*%
X101450000Y-105500000D03*
%TO.P,U1,5,GND*%
%TO.N,GND*%
X98550000Y-105500000D03*
%TO.P,U1,4,PB4*%
%TO.N,/PB4*%
X98550000Y-105000000D03*
%TO.P,U1,3,NC*%
%TO.N,unconnected-(U1-Pad3)*%
X98550000Y-104500000D03*
%TO.P,U1,2,PB3*%
%TO.N,/PB3*%
X98550000Y-104000000D03*
%TO.P,U1,1,~{RESET}/PB5*%
%TO.N,/RST*%
X98550000Y-103500000D03*
%TD*%
D12*
%TO.P,TGND1,1,1*%
%TO.N,GND*%
X94200000Y-100000000D03*
%TD*%
%TO.P,TDq1,1,1*%
%TO.N,/Dq*%
X105800000Y-100000000D03*
%TD*%
D13*
%TO.P,SW1,1*%
%TO.N,/PB2*%
X96190000Y-98230000D03*
%TO.P,SW1,4*%
%TO.N,GND*%
X103810000Y-100770000D03*
%TO.P,SW1,2*%
%TO.N,/PB3*%
X96190000Y-99500000D03*
%TO.P,SW1,5*%
%TO.N,GND*%
X103810000Y-99500000D03*
%TO.P,SW1,3*%
%TO.N,/PB4*%
X96190000Y-100770000D03*
%TO.P,SW1,6*%
%TO.N,GND*%
X103810000Y-98230000D03*
%TD*%
D14*
%TO.P,R1,2*%
%TO.N,/RST*%
X97300000Y-103200000D03*
%TO.P,R1,1*%
%TO.N,VCC*%
X96280000Y-103200000D03*
%TD*%
D15*
%TO.P,D1,2,A*%
%TO.N,/Dq*%
X103050000Y-95400000D03*
%TO.P,D1,1,K*%
%TO.N,VCC*%
X100950000Y-95400000D03*
%TD*%
D16*
%TO.P,C1,2*%
%TO.N,GND*%
X97225000Y-95400000D03*
%TO.P,C1,1*%
%TO.N,VCC*%
X98775000Y-95400000D03*
%TD*%
D17*
%TO.N,GND*%
X100000000Y-98500000D03*
X100000000Y-101500000D03*
%TO.N,VCC*%
X99850000Y-95400000D03*
X101450000Y-102600000D03*
X95590000Y-103200000D03*
%TD*%
D18*
%TO.N,/Dq*%
X105800000Y-100000000D02*
X105800000Y-101900000D01*
X105800000Y-101900000D02*
X102200000Y-105500000D01*
X102200000Y-105500000D02*
X101450000Y-105500000D01*
X103050000Y-95400000D02*
X105800000Y-98150000D01*
X105800000Y-98150000D02*
X105800000Y-100000000D01*
D19*
%TO.N,/PB4*%
X98550000Y-105000000D02*
X95900000Y-105000000D01*
X94500000Y-103600000D02*
X94500000Y-101545000D01*
X95900000Y-105000000D02*
X94500000Y-103600000D01*
X94500000Y-101545000D02*
X95275000Y-100770000D01*
X95275000Y-100770000D02*
X96190000Y-100770000D01*
%TO.N,/PB3*%
X98550000Y-104000000D02*
X95400000Y-104000000D01*
X95400000Y-104000000D02*
X94900000Y-103500000D01*
X94900000Y-103500000D02*
X94900000Y-102790000D01*
X97290000Y-99800000D02*
X96990000Y-99500000D01*
X94900000Y-102790000D02*
X95290000Y-102400000D01*
X95290000Y-102400000D02*
X96790000Y-102400000D01*
X96790000Y-102400000D02*
X97290000Y-101900000D01*
X97290000Y-101900000D02*
X97290000Y-99800000D01*
X96990000Y-99500000D02*
X96190000Y-99500000D01*
%TO.N,/PB2*%
X102050000Y-104000000D02*
X101450000Y-104000000D01*
X102250000Y-102455000D02*
X102250000Y-103800000D01*
X98025000Y-98230000D02*
X102250000Y-102455000D01*
X102250000Y-103800000D02*
X102050000Y-104000000D01*
X96190000Y-98230000D02*
X98025000Y-98230000D01*
D20*
%TO.N,VCC*%
X100950000Y-95400000D02*
X99850000Y-95400000D01*
X98775000Y-95400000D02*
X99850000Y-95400000D01*
D18*
X101450000Y-103500000D02*
X101450000Y-102600000D01*
D21*
X95590000Y-103200000D02*
X96280000Y-103200000D01*
%TO.N,/RST*%
X97300000Y-103200000D02*
X97690000Y-103200000D01*
X97990000Y-103500000D02*
X98550000Y-103500000D01*
X97690000Y-103200000D02*
X97990000Y-103500000D01*
%TD*%
%TA.AperFunction,Conductor*%
%TO.N,GND*%
G36*
X100273898Y-93210090D02*
G01*
X100471568Y-93216474D01*
X100477097Y-93216861D01*
X100684370Y-93239195D01*
X100978854Y-93270927D01*
X100984348Y-93271728D01*
X101480651Y-93363264D01*
X101486070Y-93364476D01*
X101974090Y-93492961D01*
X101979399Y-93494574D01*
X102456427Y-93659293D01*
X102461592Y-93661297D01*
X102924929Y-93861321D01*
X102929928Y-93863705D01*
X103376959Y-94097904D01*
X103381775Y-94100662D01*
X103809995Y-94367724D01*
X103814577Y-94370827D01*
X103920406Y-94448423D01*
X104221568Y-94669244D01*
X104225919Y-94672693D01*
X104609369Y-95000770D01*
X104613450Y-95004535D01*
X104971242Y-95360458D01*
X104975025Y-95364516D01*
X105020290Y-95416863D01*
X105305106Y-95746244D01*
X105308577Y-95750575D01*
X105549111Y-96075045D01*
X105609120Y-96155995D01*
X105612252Y-96160570D01*
X105647977Y-96217190D01*
X105881549Y-96587380D01*
X105884333Y-96592183D01*
X106120864Y-97037971D01*
X106123279Y-97042965D01*
X106151435Y-97107259D01*
X106325724Y-97505247D01*
X106327759Y-97510413D01*
X106422053Y-97778920D01*
X106483713Y-97954500D01*
X106494972Y-97986562D01*
X106496613Y-97991863D01*
X106508184Y-98034897D01*
X106627656Y-98479223D01*
X106628895Y-98484635D01*
X106723023Y-98980421D01*
X106723854Y-98985911D01*
X106780547Y-99487389D01*
X106780963Y-99492926D01*
X106799910Y-99997612D01*
X106799935Y-100002390D01*
X106797504Y-100092224D01*
X106791445Y-100316168D01*
X106790114Y-100365342D01*
X106789831Y-100370104D01*
X106764034Y-100650853D01*
X106743617Y-100873055D01*
X106742901Y-100878561D01*
X106659178Y-101376202D01*
X106658053Y-101381639D01*
X106553044Y-101807558D01*
X106537243Y-101871645D01*
X106535715Y-101876974D01*
X106453669Y-102127253D01*
X106378512Y-102356517D01*
X106376586Y-102361724D01*
X106183863Y-102828151D01*
X106181552Y-102833198D01*
X105960494Y-103271769D01*
X105954412Y-103283835D01*
X105951734Y-103288687D01*
X105756180Y-103613500D01*
X105691431Y-103721048D01*
X105688391Y-103725694D01*
X105396411Y-104137311D01*
X105393031Y-104141716D01*
X105071008Y-104530284D01*
X105067307Y-104534423D01*
X104717046Y-104897762D01*
X104713071Y-104901588D01*
X104347098Y-105228231D01*
X104336555Y-105237641D01*
X104332282Y-105241176D01*
X104054191Y-105454178D01*
X103931645Y-105548041D01*
X103927114Y-105551250D01*
X103504584Y-105827219D01*
X103499824Y-105830079D01*
X103057796Y-106073588D01*
X103052836Y-106076082D01*
X102593810Y-106285757D01*
X102588679Y-106287872D01*
X102139354Y-106453637D01*
X102115205Y-106462546D01*
X102109927Y-106464271D01*
X101624707Y-106602947D01*
X101619315Y-106604272D01*
X101125040Y-106706182D01*
X101119564Y-106707098D01*
X100619054Y-106771659D01*
X100613524Y-106772162D01*
X100109581Y-106799013D01*
X100104030Y-106799100D01*
X99834554Y-106793221D01*
X99599491Y-106788092D01*
X99593964Y-106787763D01*
X99091647Y-106738953D01*
X99086166Y-106738212D01*
X98681288Y-106667914D01*
X98588943Y-106651880D01*
X98583512Y-106650726D01*
X98094151Y-106527353D01*
X98088822Y-106525794D01*
X97610122Y-106366087D01*
X97604924Y-106364134D01*
X97217512Y-106201679D01*
X97139506Y-106168968D01*
X97134485Y-106166637D01*
X96685022Y-105937130D01*
X96680180Y-105934424D01*
X96549727Y-105854951D01*
X96329979Y-105721080D01*
X96249205Y-105671872D01*
X96244575Y-105668808D01*
X95884980Y-105410887D01*
X95856419Y-105369095D01*
X95861402Y-105318722D01*
X95897599Y-105283338D01*
X95913675Y-105278177D01*
X95919985Y-105276922D01*
X95934420Y-105275500D01*
X97932755Y-105275500D01*
X97978953Y-105292315D01*
X97980448Y-105294552D01*
X97986509Y-105298602D01*
X98039324Y-105333892D01*
X98046769Y-105338867D01*
X98091295Y-105347724D01*
X98101682Y-105349790D01*
X98101683Y-105349790D01*
X98105252Y-105350500D01*
X98994748Y-105350500D01*
X98998317Y-105349790D01*
X98998318Y-105349790D01*
X99008705Y-105347724D01*
X99053231Y-105338867D01*
X99060677Y-105333892D01*
X99113491Y-105298602D01*
X99119552Y-105294552D01*
X99130000Y-105278916D01*
X99159816Y-105234294D01*
X99159816Y-105234293D01*
X99163867Y-105228231D01*
X99175500Y-105169748D01*
X99175500Y-104830252D01*
X99163867Y-104771769D01*
X99164747Y-104771594D01*
X99162916Y-104729654D01*
X99163867Y-104728231D01*
X99168921Y-104702826D01*
X99174790Y-104673318D01*
X99174790Y-104673317D01*
X99175500Y-104669748D01*
X99175500Y-104330252D01*
X99168053Y-104292813D01*
X99165289Y-104278916D01*
X99165288Y-104278914D01*
X99163867Y-104271769D01*
X99164747Y-104271594D01*
X99162916Y-104229654D01*
X99163867Y-104228231D01*
X99166708Y-104213951D01*
X99174790Y-104173318D01*
X99174790Y-104173317D01*
X99175500Y-104169748D01*
X99175500Y-103830252D01*
X99170905Y-103807149D01*
X99165289Y-103778916D01*
X99165288Y-103778914D01*
X99163867Y-103771769D01*
X99164747Y-103771594D01*
X99162916Y-103729654D01*
X99163867Y-103728231D01*
X99166685Y-103714068D01*
X99174790Y-103673318D01*
X99174790Y-103673317D01*
X99175500Y-103669748D01*
X99175500Y-103330252D01*
X99163867Y-103271769D01*
X99119552Y-103205448D01*
X99113491Y-103201398D01*
X99059294Y-103165184D01*
X99059293Y-103165184D01*
X99053231Y-103161133D01*
X98999273Y-103150400D01*
X98998318Y-103150210D01*
X98998317Y-103150210D01*
X98994748Y-103149500D01*
X98130478Y-103149500D01*
X98082912Y-103132187D01*
X98078152Y-103127826D01*
X97932494Y-102982168D01*
X97928133Y-102977408D01*
X97906619Y-102951769D01*
X97902455Y-102946806D01*
X97867850Y-102926827D01*
X97862411Y-102923362D01*
X97834987Y-102904159D01*
X97834986Y-102904158D01*
X97829684Y-102900446D01*
X97823432Y-102898771D01*
X97818882Y-102896649D01*
X97813358Y-102894361D01*
X97808647Y-102892647D01*
X97803045Y-102889412D01*
X97796674Y-102888289D01*
X97796672Y-102888288D01*
X97779503Y-102885261D01*
X97735666Y-102859951D01*
X97725286Y-102843659D01*
X97716801Y-102825462D01*
X97716799Y-102825459D01*
X97714065Y-102819596D01*
X97630404Y-102735935D01*
X97523173Y-102685932D01*
X97474316Y-102679500D01*
X97125684Y-102679500D01*
X97123277Y-102679817D01*
X97123275Y-102679817D01*
X97082049Y-102685244D01*
X97032630Y-102674287D01*
X97001816Y-102634128D01*
X97004024Y-102583558D01*
X97020065Y-102559551D01*
X97460471Y-102119145D01*
X97471682Y-102109944D01*
X97488624Y-102098624D01*
X97504100Y-102075464D01*
X97544431Y-102015103D01*
X97549515Y-102007495D01*
X97565500Y-101927133D01*
X97565500Y-101927132D01*
X97570897Y-101900000D01*
X97566922Y-101880016D01*
X97565500Y-101865580D01*
X97565500Y-99834420D01*
X97566922Y-99819983D01*
X97569475Y-99807149D01*
X97570897Y-99800000D01*
X97549515Y-99692506D01*
X97549515Y-99692505D01*
X97488624Y-99601376D01*
X97471682Y-99590056D01*
X97460471Y-99580855D01*
X97209145Y-99329529D01*
X97199942Y-99318315D01*
X97192673Y-99307436D01*
X97188624Y-99301376D01*
X97165623Y-99286007D01*
X97165622Y-99286006D01*
X97139465Y-99268529D01*
X97097495Y-99240485D01*
X97090347Y-99239063D01*
X97090344Y-99239062D01*
X97085063Y-99238012D01*
X97041788Y-99211752D01*
X97025500Y-99165434D01*
X97025500Y-99100252D01*
X97013867Y-99041769D01*
X96969552Y-98975448D01*
X96903231Y-98931133D01*
X96902258Y-98930939D01*
X96867588Y-98899168D01*
X96860981Y-98848982D01*
X96888180Y-98806291D01*
X96899885Y-98799533D01*
X96903231Y-98798867D01*
X96969552Y-98754552D01*
X97013867Y-98688231D01*
X97025500Y-98629748D01*
X97025500Y-98579500D01*
X97042813Y-98531934D01*
X97086650Y-98506624D01*
X97099500Y-98505500D01*
X97880232Y-98505500D01*
X97927798Y-98522813D01*
X97932558Y-98527174D01*
X101304801Y-101899417D01*
X101326193Y-101945293D01*
X101313092Y-101994188D01*
X101280794Y-102020110D01*
X101207502Y-102050469D01*
X101147159Y-102075464D01*
X101143315Y-102078414D01*
X101143311Y-102078416D01*
X101057146Y-102144533D01*
X101021718Y-102171718D01*
X101018763Y-102175569D01*
X100928416Y-102293311D01*
X100928414Y-102293315D01*
X100925464Y-102297159D01*
X100864956Y-102443238D01*
X100864324Y-102448040D01*
X100864323Y-102448043D01*
X100849643Y-102559551D01*
X100844318Y-102600000D01*
X100844951Y-102604808D01*
X100862817Y-102740512D01*
X100864956Y-102756762D01*
X100925464Y-102902841D01*
X100928414Y-102906685D01*
X100928416Y-102906689D01*
X101016110Y-103020974D01*
X101021718Y-103028282D01*
X101023388Y-103029564D01*
X101044337Y-103074489D01*
X101031236Y-103123384D01*
X100985056Y-103153517D01*
X100953920Y-103159710D01*
X100953917Y-103159711D01*
X100946769Y-103161133D01*
X100940707Y-103165184D01*
X100940706Y-103165184D01*
X100886509Y-103201398D01*
X100880448Y-103205448D01*
X100836133Y-103271769D01*
X100824500Y-103330252D01*
X100824500Y-103669748D01*
X100825210Y-103673317D01*
X100825210Y-103673318D01*
X100833316Y-103714068D01*
X100834995Y-103722510D01*
X100834995Y-103722511D01*
X100836133Y-103728231D01*
X100835253Y-103728406D01*
X100837084Y-103770346D01*
X100836133Y-103771769D01*
X100834712Y-103778914D01*
X100834711Y-103778916D01*
X100829095Y-103807149D01*
X100824500Y-103830252D01*
X100824500Y-104169748D01*
X100825210Y-104173317D01*
X100825210Y-104173318D01*
X100833293Y-104213951D01*
X100834995Y-104222510D01*
X100834995Y-104222511D01*
X100836133Y-104228231D01*
X100835253Y-104228406D01*
X100837084Y-104270346D01*
X100836133Y-104271769D01*
X100834712Y-104278914D01*
X100834711Y-104278916D01*
X100831947Y-104292813D01*
X100824500Y-104330252D01*
X100824500Y-104669748D01*
X100825210Y-104673317D01*
X100825210Y-104673318D01*
X100831080Y-104702826D01*
X100834995Y-104722510D01*
X100834995Y-104722511D01*
X100836133Y-104728231D01*
X100835253Y-104728406D01*
X100837084Y-104770346D01*
X100836133Y-104771769D01*
X100824500Y-104830252D01*
X100824500Y-105169748D01*
X100825210Y-105173317D01*
X100825210Y-105173318D01*
X100834711Y-105221080D01*
X100834995Y-105222510D01*
X100834995Y-105222511D01*
X100836133Y-105228231D01*
X100835253Y-105228406D01*
X100837084Y-105270346D01*
X100836133Y-105271769D01*
X100834712Y-105278914D01*
X100834711Y-105278916D01*
X100826793Y-105318722D01*
X100824500Y-105330252D01*
X100824500Y-105669748D01*
X100836133Y-105728231D01*
X100840184Y-105734293D01*
X100840184Y-105734294D01*
X100873618Y-105784330D01*
X100880448Y-105794552D01*
X100886509Y-105798602D01*
X100906040Y-105811652D01*
X100946769Y-105838867D01*
X100991295Y-105847724D01*
X101001682Y-105849790D01*
X101001683Y-105849790D01*
X101005252Y-105850500D01*
X102154713Y-105850500D01*
X102170288Y-105852158D01*
X102183261Y-105854951D01*
X102189336Y-105854232D01*
X102189337Y-105854232D01*
X102216533Y-105851013D01*
X102225231Y-105850500D01*
X102229115Y-105850500D01*
X102232129Y-105849998D01*
X102232133Y-105849998D01*
X102247701Y-105847407D01*
X102251151Y-105846916D01*
X102293065Y-105841955D01*
X102293066Y-105841955D01*
X102299138Y-105841236D01*
X102304650Y-105838589D01*
X102305787Y-105838259D01*
X102306595Y-105838075D01*
X102307180Y-105837890D01*
X102307932Y-105837582D01*
X102309071Y-105837192D01*
X102315103Y-105836188D01*
X102338324Y-105823659D01*
X102357645Y-105813234D01*
X102360751Y-105811652D01*
X102400125Y-105792745D01*
X102400135Y-105792738D01*
X102404326Y-105790726D01*
X102408274Y-105787408D01*
X102409227Y-105786455D01*
X102412690Y-105783532D01*
X102417794Y-105780778D01*
X102452140Y-105743623D01*
X102454154Y-105741528D01*
X106015813Y-102179868D01*
X106027999Y-102170027D01*
X106034011Y-102166145D01*
X106034013Y-102166143D01*
X106039152Y-102162825D01*
X106042938Y-102158023D01*
X106042942Y-102158019D01*
X106059902Y-102136505D01*
X106065689Y-102129992D01*
X106068428Y-102127253D01*
X106070396Y-102124500D01*
X106079377Y-102111932D01*
X106081450Y-102109170D01*
X106111392Y-102071189D01*
X106113418Y-102065419D01*
X106113988Y-102064383D01*
X106114430Y-102063680D01*
X106114711Y-102063140D01*
X106115028Y-102062383D01*
X106115555Y-102061307D01*
X106119111Y-102056331D01*
X106132960Y-102010023D01*
X106134037Y-102006707D01*
X106138433Y-101994188D01*
X106150055Y-101961094D01*
X106150500Y-101955956D01*
X106150500Y-101954619D01*
X106150884Y-101950088D01*
X106152544Y-101944536D01*
X106150557Y-101893963D01*
X106150500Y-101891058D01*
X106150500Y-100653356D01*
X106167813Y-100605790D01*
X106183550Y-100591719D01*
X106186509Y-100589753D01*
X106190498Y-100587747D01*
X106193890Y-100584850D01*
X106193893Y-100584848D01*
X106316030Y-100480532D01*
X106319423Y-100477634D01*
X106418361Y-100339947D01*
X106424749Y-100324058D01*
X106479938Y-100186771D01*
X106479938Y-100186770D01*
X106481601Y-100182634D01*
X106505490Y-100014778D01*
X106505645Y-100000000D01*
X106485276Y-99831680D01*
X106432686Y-99692505D01*
X106426921Y-99677247D01*
X106426920Y-99677245D01*
X106425345Y-99673077D01*
X106361962Y-99580855D01*
X106331843Y-99537031D01*
X106331841Y-99537029D01*
X106329312Y-99533349D01*
X106202721Y-99420560D01*
X106189871Y-99413756D01*
X106155936Y-99376198D01*
X106150500Y-99348359D01*
X106150500Y-98195287D01*
X106152158Y-98179712D01*
X106153663Y-98172722D01*
X106153663Y-98172721D01*
X106154951Y-98166739D01*
X106151013Y-98133467D01*
X106150500Y-98124769D01*
X106150500Y-98120885D01*
X106147403Y-98102280D01*
X106146915Y-98098845D01*
X106141955Y-98056934D01*
X106141955Y-98056933D01*
X106141236Y-98050861D01*
X106138589Y-98045349D01*
X106138259Y-98044212D01*
X106138076Y-98043407D01*
X106137889Y-98042817D01*
X106137582Y-98042067D01*
X106137192Y-98040928D01*
X106136188Y-98034897D01*
X106113234Y-97992358D01*
X106111651Y-97989251D01*
X106092741Y-97949870D01*
X106092740Y-97949869D01*
X106090726Y-97945674D01*
X106087408Y-97941726D01*
X106086455Y-97940773D01*
X106083532Y-97937310D01*
X106080778Y-97932206D01*
X106043623Y-97897860D01*
X106041528Y-97895846D01*
X103572174Y-95426492D01*
X103550782Y-95380616D01*
X103550500Y-95374166D01*
X103550500Y-95155252D01*
X103538867Y-95096769D01*
X103494552Y-95030448D01*
X103482850Y-95022629D01*
X103434294Y-94990184D01*
X103434293Y-94990184D01*
X103428231Y-94986133D01*
X103383705Y-94977276D01*
X103373318Y-94975210D01*
X103373317Y-94975210D01*
X103369748Y-94974500D01*
X102730252Y-94974500D01*
X102726683Y-94975210D01*
X102726682Y-94975210D01*
X102716295Y-94977276D01*
X102671769Y-94986133D01*
X102665707Y-94990184D01*
X102665706Y-94990184D01*
X102617150Y-95022629D01*
X102605448Y-95030448D01*
X102561133Y-95096769D01*
X102549500Y-95155252D01*
X102549500Y-95644748D01*
X102561133Y-95703231D01*
X102605448Y-95769552D01*
X102611509Y-95773602D01*
X102660599Y-95806403D01*
X102671769Y-95813867D01*
X102713521Y-95822172D01*
X102726682Y-95824790D01*
X102726683Y-95824790D01*
X102730252Y-95825500D01*
X102949166Y-95825500D01*
X102996732Y-95842813D01*
X103001492Y-95847174D01*
X105427826Y-98273508D01*
X105449218Y-98319384D01*
X105449500Y-98325834D01*
X105449500Y-99347484D01*
X105432187Y-99395050D01*
X105409437Y-99413243D01*
X105403369Y-99416375D01*
X105400011Y-99419304D01*
X105400010Y-99419305D01*
X105315617Y-99492926D01*
X105275604Y-99527831D01*
X105178113Y-99666547D01*
X105116524Y-99824513D01*
X105107099Y-99896108D01*
X105099862Y-99951080D01*
X105094394Y-99992611D01*
X105102365Y-100064816D01*
X105106342Y-100100832D01*
X105112999Y-100161135D01*
X105114532Y-100165324D01*
X105168124Y-100311769D01*
X105171266Y-100320356D01*
X105265830Y-100461083D01*
X105391233Y-100575191D01*
X105395156Y-100577321D01*
X105410810Y-100585821D01*
X105444351Y-100623732D01*
X105449500Y-100650853D01*
X105449500Y-101724166D01*
X105432187Y-101771732D01*
X105427826Y-101776492D01*
X102201826Y-105002492D01*
X102155950Y-105023884D01*
X102107055Y-105010783D01*
X102078021Y-104969319D01*
X102075500Y-104950166D01*
X102075500Y-104830252D01*
X102063867Y-104771769D01*
X102064747Y-104771594D01*
X102062916Y-104729654D01*
X102063867Y-104728231D01*
X102068921Y-104702826D01*
X102074790Y-104673318D01*
X102074790Y-104673317D01*
X102075500Y-104669748D01*
X102075500Y-104336555D01*
X102092813Y-104288989D01*
X102135063Y-104263977D01*
X102157495Y-104259515D01*
X102199465Y-104231471D01*
X102225622Y-104213994D01*
X102225623Y-104213993D01*
X102248624Y-104198624D01*
X102259944Y-104181682D01*
X102269145Y-104170471D01*
X102420471Y-104019145D01*
X102431682Y-104009944D01*
X102448624Y-103998624D01*
X102509515Y-103907495D01*
X102525500Y-103827133D01*
X102525500Y-103827132D01*
X102530897Y-103800000D01*
X102526922Y-103780016D01*
X102525500Y-103765580D01*
X102525500Y-102489420D01*
X102526922Y-102474983D01*
X102529475Y-102462149D01*
X102530897Y-102455000D01*
X102513072Y-102365385D01*
X102510937Y-102354652D01*
X102510936Y-102354650D01*
X102509515Y-102347505D01*
X102463994Y-102279378D01*
X102463993Y-102279377D01*
X102448624Y-102256376D01*
X102431682Y-102245056D01*
X102420471Y-102235855D01*
X98244145Y-98059529D01*
X98234942Y-98048315D01*
X98231269Y-98042817D01*
X98223624Y-98031376D01*
X98200623Y-98016007D01*
X98200622Y-98016006D01*
X98160481Y-97989185D01*
X98132495Y-97970485D01*
X98087629Y-97961561D01*
X98052135Y-97954500D01*
X98052132Y-97954500D01*
X98025000Y-97949103D01*
X98017851Y-97950525D01*
X98005017Y-97953078D01*
X97990580Y-97954500D01*
X97099500Y-97954500D01*
X97051934Y-97937187D01*
X97026624Y-97893350D01*
X97025500Y-97880500D01*
X97025500Y-97830252D01*
X97013867Y-97771769D01*
X96969552Y-97705448D01*
X96903231Y-97661133D01*
X96858705Y-97652276D01*
X96848318Y-97650210D01*
X96848317Y-97650210D01*
X96844748Y-97649500D01*
X95535252Y-97649500D01*
X95531683Y-97650210D01*
X95531682Y-97650210D01*
X95521295Y-97652276D01*
X95476769Y-97661133D01*
X95410448Y-97705448D01*
X95366133Y-97771769D01*
X95354500Y-97830252D01*
X95354500Y-98629748D01*
X95366133Y-98688231D01*
X95410448Y-98754552D01*
X95476769Y-98798867D01*
X95477742Y-98799061D01*
X95512412Y-98830832D01*
X95519019Y-98881018D01*
X95491820Y-98923709D01*
X95480115Y-98930467D01*
X95476769Y-98931133D01*
X95410448Y-98975448D01*
X95366133Y-99041769D01*
X95354500Y-99100252D01*
X95354500Y-99899748D01*
X95366133Y-99958231D01*
X95370184Y-99964293D01*
X95370184Y-99964294D01*
X95402299Y-100012356D01*
X95410448Y-100024552D01*
X95476769Y-100068867D01*
X95477742Y-100069061D01*
X95512412Y-100100832D01*
X95519019Y-100151018D01*
X95491820Y-100193709D01*
X95480115Y-100200467D01*
X95476769Y-100201133D01*
X95410448Y-100245448D01*
X95366133Y-100311769D01*
X95354500Y-100370252D01*
X95354500Y-100416525D01*
X95337187Y-100464091D01*
X95293350Y-100489401D01*
X95281646Y-100490425D01*
X95275000Y-100489103D01*
X95167506Y-100510484D01*
X95099378Y-100556006D01*
X95099377Y-100556007D01*
X95076376Y-100571376D01*
X95065438Y-100587747D01*
X95065058Y-100588315D01*
X95055855Y-100599529D01*
X94329529Y-101325855D01*
X94318318Y-101335056D01*
X94301376Y-101346376D01*
X94240485Y-101437505D01*
X94240485Y-101437506D01*
X94219103Y-101545000D01*
X94220525Y-101552149D01*
X94223078Y-101564983D01*
X94224500Y-101579420D01*
X94224500Y-103312251D01*
X94207187Y-103359817D01*
X94163350Y-103385127D01*
X94113500Y-103376337D01*
X94085498Y-103347618D01*
X94053439Y-103288696D01*
X93910475Y-103025936D01*
X93908019Y-103020986D01*
X93700743Y-102560852D01*
X93698658Y-102555717D01*
X93687467Y-102524884D01*
X93526468Y-102081339D01*
X93524772Y-102076059D01*
X93524606Y-102075464D01*
X93388634Y-101590101D01*
X93387338Y-101584703D01*
X93355106Y-101424129D01*
X93288018Y-101089905D01*
X93287132Y-101084438D01*
X93225193Y-100583589D01*
X93224719Y-100578057D01*
X93204479Y-100156700D01*
X93200506Y-100073976D01*
X93200448Y-100068429D01*
X93203624Y-99951080D01*
X93210415Y-99700104D01*
X93214099Y-99563960D01*
X93214457Y-99558420D01*
X93265894Y-99056385D01*
X93266667Y-99050886D01*
X93355601Y-98554126D01*
X93356784Y-98548702D01*
X93482712Y-98060013D01*
X93484298Y-98054691D01*
X93488129Y-98043407D01*
X93537535Y-97897860D01*
X93646520Y-97576805D01*
X93648501Y-97571619D01*
X93846088Y-97107259D01*
X93848452Y-97102235D01*
X94080303Y-96653992D01*
X94083037Y-96649159D01*
X94347849Y-96219553D01*
X94350938Y-96214939D01*
X94392069Y-96158224D01*
X94560196Y-95926391D01*
X94647213Y-95806403D01*
X94650639Y-95802034D01*
X94750995Y-95683488D01*
X98124500Y-95683488D01*
X98124955Y-95686361D01*
X98139369Y-95777371D01*
X98139370Y-95777374D01*
X98140281Y-95783126D01*
X98142926Y-95788317D01*
X98142927Y-95788320D01*
X98198826Y-95898028D01*
X98198828Y-95898030D01*
X98201472Y-95903220D01*
X98296780Y-95998528D01*
X98301970Y-96001172D01*
X98301972Y-96001174D01*
X98411680Y-96057073D01*
X98411683Y-96057074D01*
X98416874Y-96059719D01*
X98422626Y-96060630D01*
X98422629Y-96060631D01*
X98513639Y-96075045D01*
X98516512Y-96075500D01*
X99033488Y-96075500D01*
X99036361Y-96075045D01*
X99127371Y-96060631D01*
X99127374Y-96060630D01*
X99133126Y-96059719D01*
X99138317Y-96057074D01*
X99138320Y-96057073D01*
X99248028Y-96001174D01*
X99248030Y-96001172D01*
X99253220Y-95998528D01*
X99348528Y-95903220D01*
X99351171Y-95898033D01*
X99356158Y-95888246D01*
X99393179Y-95853725D01*
X99443729Y-95851077D01*
X99467138Y-95863134D01*
X99547159Y-95924536D01*
X99693238Y-95985044D01*
X99698040Y-95985676D01*
X99698043Y-95985677D01*
X99845192Y-96005049D01*
X99850000Y-96005682D01*
X99854808Y-96005049D01*
X100001957Y-95985677D01*
X100001960Y-95985676D01*
X100006762Y-95985044D01*
X100152841Y-95924536D01*
X100156685Y-95921586D01*
X100156689Y-95921584D01*
X100274432Y-95831236D01*
X100278282Y-95828282D01*
X100281234Y-95824434D01*
X100283497Y-95822172D01*
X100329374Y-95800781D01*
X100335821Y-95800500D01*
X100529316Y-95800500D01*
X100558067Y-95809222D01*
X100558975Y-95807029D01*
X100565711Y-95809819D01*
X100571769Y-95813867D01*
X100578914Y-95815288D01*
X100578916Y-95815289D01*
X100626682Y-95824790D01*
X100626683Y-95824790D01*
X100630252Y-95825500D01*
X101269748Y-95825500D01*
X101273317Y-95824790D01*
X101273318Y-95824790D01*
X101286479Y-95822172D01*
X101328231Y-95813867D01*
X101339402Y-95806403D01*
X101388491Y-95773602D01*
X101394552Y-95769552D01*
X101438867Y-95703231D01*
X101450500Y-95644748D01*
X101450500Y-95155252D01*
X101438867Y-95096769D01*
X101394552Y-95030448D01*
X101382850Y-95022629D01*
X101334294Y-94990184D01*
X101334293Y-94990184D01*
X101328231Y-94986133D01*
X101283705Y-94977276D01*
X101273318Y-94975210D01*
X101273317Y-94975210D01*
X101269748Y-94974500D01*
X100630252Y-94974500D01*
X100626683Y-94975210D01*
X100626682Y-94975210D01*
X100578916Y-94984711D01*
X100578914Y-94984712D01*
X100571769Y-94986133D01*
X100565711Y-94990181D01*
X100558975Y-94992971D01*
X100558067Y-94990778D01*
X100529316Y-94999500D01*
X100335821Y-94999500D01*
X100288255Y-94982187D01*
X100283497Y-94977828D01*
X100281234Y-94975566D01*
X100278282Y-94971718D01*
X100232861Y-94936865D01*
X100156689Y-94878416D01*
X100156685Y-94878414D01*
X100152841Y-94875464D01*
X100006762Y-94814956D01*
X100001960Y-94814324D01*
X100001957Y-94814323D01*
X99854808Y-94794951D01*
X99850000Y-94794318D01*
X99845192Y-94794951D01*
X99698043Y-94814323D01*
X99698040Y-94814324D01*
X99693238Y-94814956D01*
X99547159Y-94875464D01*
X99467139Y-94936865D01*
X99418864Y-94952087D01*
X99372098Y-94932716D01*
X99356158Y-94911754D01*
X99351171Y-94901967D01*
X99351171Y-94901966D01*
X99348528Y-94896780D01*
X99253220Y-94801472D01*
X99248030Y-94798828D01*
X99248028Y-94798826D01*
X99138320Y-94742927D01*
X99138317Y-94742926D01*
X99133126Y-94740281D01*
X99127374Y-94739370D01*
X99127371Y-94739369D01*
X99036361Y-94724955D01*
X99033488Y-94724500D01*
X98516512Y-94724500D01*
X98513639Y-94724955D01*
X98422629Y-94739369D01*
X98422626Y-94739370D01*
X98416874Y-94740281D01*
X98411683Y-94742926D01*
X98411680Y-94742927D01*
X98301972Y-94798826D01*
X98301970Y-94798828D01*
X98296780Y-94801472D01*
X98201472Y-94896780D01*
X98198828Y-94901970D01*
X98198826Y-94901972D01*
X98146568Y-95004535D01*
X98140281Y-95016874D01*
X98139370Y-95022626D01*
X98139369Y-95022629D01*
X98134853Y-95051145D01*
X98124500Y-95116512D01*
X98124500Y-95683488D01*
X94750995Y-95683488D01*
X94917324Y-95487012D01*
X94976712Y-95416861D01*
X94980454Y-95412763D01*
X95334486Y-95053125D01*
X95338527Y-95049317D01*
X95718531Y-94717234D01*
X95722846Y-94713740D01*
X96126670Y-94411092D01*
X96131234Y-94407931D01*
X96556625Y-94136404D01*
X96561414Y-94133594D01*
X97005967Y-93894727D01*
X97010953Y-93892284D01*
X97472182Y-93687414D01*
X97477298Y-93685368D01*
X97952590Y-93515657D01*
X97957886Y-93513988D01*
X98444534Y-93380399D01*
X98449940Y-93379131D01*
X98945242Y-93282406D01*
X98950727Y-93281547D01*
X99378071Y-93230967D01*
X99451894Y-93222230D01*
X99457426Y-93221785D01*
X99572508Y-93216861D01*
X99961621Y-93200212D01*
X99967173Y-93200183D01*
X100273898Y-93210090D01*
G37*
%TD.AperFunction*%
%TD*%
M02*
